HIERARCHY
ROOT hip
{
  OFFSET 0 0 0
  CHANNELS 6 Xposition Yposition Zposition Zrotation Yrotation Xrotation
  JOINT abdomen
  {
    OFFSET 0 20.6881 -0.73152
    CHANNELS 3 Zrotation Xrotation Yrotation
    JOINT chest
    {
      OFFSET 0 11.7043 -0.48768
      CHANNELS 3 Zrotation Xrotation Yrotation
      JOINT neck
      {
        OFFSET 0 22.1894 -2.19456
        CHANNELS 3 Zrotation Xrotation Yrotation
        JOINT head
        {
          OFFSET -0.24384 7.07133 1.2192
          CHANNELS 3 Zrotation Xrotation Yrotation
          JOINT leftEye
          {
            OFFSET 4.14528 8.04674 8.04672
            CHANNELS 3 Zrotation Xrotation Yrotation
            End Site
            {
              OFFSET 1 0 0
            }
          }
          JOINT rightEye
          {
            OFFSET -3.6576 8.04674 8.04672
            CHANNELS 3 Zrotation Xrotation Yrotation
            End Site
            {
              OFFSET 1 0 0
            }
          }
        }
      }
      JOINT rCollar
      {
        OFFSET -2.68224 19.2634 -4.8768
        CHANNELS 3 Zrotation Xrotation Yrotation
        JOINT rShldr
        {
          OFFSET -8.77824 -1.95073 1.46304
          CHANNELS 3 Zrotation Xrotation Yrotation
          JOINT rForeArm
          {
            OFFSET -28.1742 -1.7115 0.48768
            CHANNELS 3 Zrotation Xrotation Yrotation
            JOINT rHand
            {
              OFFSET -22.5879 0.773209 7.07136
              CHANNELS 3 Zrotation Xrotation Yrotation
              JOINT rThumb1
              {
                OFFSET -1.2192 -0.487915 3.41376
                CHANNELS 3 Zrotation Xrotation Yrotation
                JOINT rThumb2
                {
                  OFFSET -3.37035 -0.52449 3.41376
                  CHANNELS 3 Zrotation Xrotation Yrotation
                  End Site
                  {
                    OFFSET -1.78271 -1.18214 1.43049
                  }
                }
              }
              JOINT rIndex1
              {
                OFFSET -7.75947 0.938293 5.60832
                CHANNELS 3 Zrotation Xrotation Yrotation
                JOINT rIndex2
                {
                  OFFSET -2.54057 -0.884171 1.56538
                  CHANNELS 3 Zrotation Xrotation Yrotation
                  End Site
                  {
                    OFFSET -1.62519 -0.234802 1.16502
                  }
                }
              }
              JOINT rMid1
              {
                OFFSET -8.24714 1.18213 3.41376
                CHANNELS 3 Zrotation Xrotation Yrotation
                JOINT rMid2
                {
                  OFFSET -3.10165 -0.590103 1.0647
                  CHANNELS 3 Zrotation Xrotation Yrotation
                  End Site
                  {
                    OFFSET -2.48547 -0.328903 0.83742
                  }
                }
              }
              JOINT rRing1
              {
                OFFSET -8.82822 0.546677 1.51678
                CHANNELS 3 Zrotation Xrotation Yrotation
                JOINT rRing2
                {
                  OFFSET -2.60934 -0.819778 -0.0198488
                  CHANNELS 3 Zrotation Xrotation Yrotation
                  End Site
                  {
                    OFFSET -2.33842 -0.294052 0.168128
                  }
                }
              }
              JOINT rPinky1
              {
                OFFSET -8.27202 -0.0477905 -0.4584
                CHANNELS 3 Zrotation Xrotation Yrotation
                JOINT rPinky2
                {
                  OFFSET -1.82734 -0.647385 -0.700984
                  CHANNELS 3 Zrotation Xrotation Yrotation
                  End Site
                  {
                    OFFSET -1.69225 -0.51767 -0.607171
                  }
                }
              }
            }
          }
        }
      }
      JOINT lCollar
      {
        OFFSET 2.68224 19.2634 -4.8768
        CHANNELS 3 Zrotation Xrotation Yrotation
        JOINT lShldr
        {
          OFFSET 8.77824 -1.95073 1.46304
          CHANNELS 3 Zrotation Xrotation Yrotation
          JOINT lForeArm
          {
            OFFSET 28.1742 -1.7115 0.48768
            CHANNELS 3 Zrotation Xrotation Yrotation
            JOINT lHand
            {
              OFFSET 22.5879 0.773209 7.07136
              CHANNELS 3 Zrotation Xrotation Yrotation
              JOINT lThumb1
              {
                OFFSET 1.2192 -0.487915 3.41376
                CHANNELS 3 Zrotation Xrotation Yrotation
                JOINT lThumb2
                {
                  OFFSET 3.37035 -0.52449 3.41376
                  CHANNELS 3 Zrotation Xrotation Yrotation
                  End Site
                  {
                    OFFSET 1.78271 -1.18214 1.43049
                  }
                }
              }
              JOINT lIndex1
              {
                OFFSET 7.75947 0.938293 5.60832
                CHANNELS 3 Zrotation Xrotation Yrotation
                JOINT lIndex2
                {
                  OFFSET 2.54057 -0.884171 1.56538
                  CHANNELS 3 Zrotation Xrotation Yrotation
                  End Site
                  {
                    OFFSET 1.62519 -0.234802 1.16502
                  }
                }
              }
              JOINT lMid1
              {
                OFFSET 8.24714 1.18213 3.41376
                CHANNELS 3 Zrotation Xrotation Yrotation
                JOINT lMid2
                {
                  OFFSET 3.10165 -0.590103 1.0647
                  CHANNELS 3 Zrotation Xrotation Yrotation
                  End Site
                  {
                    OFFSET 2.48547 -0.328903 0.83742
                  }
                }
              }
              JOINT lRing1
              {
                OFFSET 8.82822 0.546677 1.51678
                CHANNELS 3 Zrotation Xrotation Yrotation
                JOINT lRing2
                {
                  OFFSET 2.60934 -0.819778 -0.0198488
                  CHANNELS 3 Zrotation Xrotation Yrotation
                  End Site
                  {
                    OFFSET 2.33842 -0.294052 0.168128
                  }
                }
              }
              JOINT lPinky1
              {
                OFFSET 8.27202 -0.0477905 -0.4584
                CHANNELS 3 Zrotation Xrotation Yrotation
                JOINT lPinky2
                {
                  OFFSET 1.82734 -0.647385 -0.700984
                  CHANNELS 3 Zrotation Xrotation Yrotation
                  End Site
                  {
                    OFFSET 1.69225 -0.51767 -0.607171
                  }
                }
              }
            }
          }
        }
      }
    }
  }
  JOINT rButtock
  {
    OFFSET -8.77824 4.35084 1.2192
    CHANNELS 3 Zrotation Xrotation Yrotation
    JOINT rThigh
    {
      OFFSET 0 -1.70687 -2.19456
      CHANNELS 3 Zrotation Xrotation Yrotation
      JOINT rShin
      {
        OFFSET 0 -36.8199 0.73152
        CHANNELS 3 Zrotation Xrotation Yrotation
        JOINT rFoot
        {
          OFFSET 0.73152 -45.1104 -5.12064
          CHANNELS 3 Zrotation Xrotation Yrotation
          End Site
          {
            OFFSET -1.1221 -3.69964 12.103
          }
        }
      }
    }
  }
  JOINT lButtock
  {
    OFFSET 8.77824 4.35084 1.2192
    CHANNELS 3 Zrotation Xrotation Yrotation
    JOINT lThigh
    {
      OFFSET 0 -1.70687 -2.19456
      CHANNELS 3 Zrotation Xrotation Yrotation
      JOINT lShin
      {
        OFFSET 0 -36.8199 0.73152
        CHANNELS 3 Zrotation Xrotation Yrotation
        JOINT lFoot
        {
          OFFSET -0.73152 -45.1104 -5.12064
          CHANNELS 3 Zrotation Xrotation Yrotation
          End Site
          {
            OFFSET 1.1221 -3.69964 12.103
          }
        }
      }
    }
  }
}
MOTION
Frames:	4
Frame Time:	0.00833333
10.3781 84.1002 -42.7337 0.0 0.0 0.0 -1.51925 -0.00282957 -0.0413933 -0.418697 0.00102583 -0.072511 -3.54337e-14 -7.95139e-16 7.45444e-17 -1.05993e-13 3.18055e-15 1.21134e-16 -0.0 0.0 0.0 -0.0 0.0 0.0 -1.77435e-14 -8.54153e-18 1.98785e-16 -3.69469e-13 -6.95746e-16 5.96354e-16 -6.38168e-12 1.91012e-12 6.04305e-14 -7.31649e-11 -1.94287e-12 1.90833e-14 -1.72559e-10 -6.78191e-14 2.13097e-13 -2.98001e-10 -1.145e-13 3.76896e-13 -1.72551e-10 -6.40087e-14 2.09917e-13 7.73091 5.47488 0.417314 -1.72559e-10 -6.70898e-14 2.09917e-13 2.90554 0.965183 0.102902 -1.72549e-10 -6.72886e-14 2.14687e-13 10.2786 0.731801 0.0259123 -1.72559e-10 -6.83819e-14 2.25819e-13 2.22167 -0.733487 -0.20892 -1.77407e-14 -8.54153e-18 -9.93923e-17 -3.74604e-13 -6.08778e-16 -1.39149e-15 -6.40713e-12 -1.91549e-12 6.67917e-14 -7.3163e-11 1.88145e-12 2.22639e-14 -1.72601e-10 -6.89938e-14 2.16278e-13 -2.98069e-10 -1.20861e-13 3.85642e-13 -1.72608e-10 -6.59965e-14 2.25819e-13 -7.73091 5.47488 -0.417314 -1.72603e-10 -6.87795e-14 2.13097e-13 -2.90554 0.965183 -0.102902 -1.72609e-10 -6.82825e-14 2.14687e-13 -10.2786 0.731801 -0.0259123 -1.72601e-10 -6.91771e-14 2.09917e-13 -2.22167 -0.733487 0.20892 -2.03217e-16 0.0 -3.88251e-19 -0.64068 -1.92322 -0.00643394 -0.00925362 -2.07856 -0.0764188 -0.512001 3.99733 0.140289 2.03217e-16 0.0 3.88251e-19 -1.66988 -6.4978 0.154704 -0.0023096 6.20797 -0.0679741 0.534198 0.285503 -0.0665861
9.30873 82.6048 -45.1906 -2.3088 -6.3128 8.4219 -2.24921 -2.27212 -0.570069 1.49154 0.945065 -0.264549 -1.88339 0.198667 -2.81776 0.538946 -0.0598597 -5.07082 -0.0 0.0 0.0 -0.0 0.0 0.0 6.74326e-15 8.36829e-14 -1.8103e-14 21.0401 6.4837 1.16874 -3.57065 -1.51177 5.69134 0.0126531 -2.49559 -0.349532 -6.00789e-10 8.5412e-10 -5.51624e-10 -1.03645e-09 1.47612e-09 -9.55151e-10 -6.00784e-10 8.54123e-10 -5.51627e-10 7.73091 5.47488 0.417314 -6.0079e-10 8.54121e-10 -5.51625e-10 2.90554 0.965183 0.102902 -6.00782e-10 8.54121e-10 -5.51622e-10 10.2786 0.731801 0.0259123 -6.00791e-10 8.5412e-10 -5.51612e-10 2.22167 -0.733487 -0.20892 6.75048e-15 8.36814e-14 -1.83616e-14 -22.6911 -0.0798673 -0.926743 2.88996 -1.12729 -4.6956 -0.00160371 0.891576 -0.125249 -5.90024e-10 2.66234e-10 5.43532e-10 -1.01792e-09 4.6159e-10 9.4014e-10 -5.90031e-10 2.66237e-10 5.43543e-10 -7.73091 5.47488 -0.417314 -5.90026e-10 2.66234e-10 5.4353e-10 -2.90554 0.965183 -0.102902 -5.90033e-10 2.66234e-10 5.43532e-10 -10.2786 0.731801 -0.0259123 -5.90024e-10 2.66234e-10 5.43528e-10 -2.22167 -0.733487 0.20892 -2.03217e-16 0.0 -3.88251e-19 -1.36565 -6.04739 -0.579196 -0.00280859 4.43725 0.0490231 -0.644252 1.10503 -2.4441 2.03217e-16 0.0 3.88251e-19 -0.482657 -8.75483 1.08185 -0.0246889 11.0055 -0.156808 0.577876 -2.95494 1.11912
9.29573 82.6038 -45.1943 -2.3597 -6.339 8.442 -3.06876 -4.6741 -1.13078 3.51865 1.94583 -0.467587 -3.86048 0.404905 -5.79778 1.11323 -0.116071 -10.4315 -0.0 0.0 0.0 -0.0 0.0 0.0 3.23063e-14 1.66977e-13 -3.69274e-14 42.9877 13.3276 2.45625 -7.02038 -3.06011 11.7203 -0.00719689 -5.13241 -0.721097 -1.07559e-09 1.75609e-09 -1.09586e-09 -1.8555e-09 3.03514e-09 -1.89778e-09 -1.07559e-09 1.75609e-09 -1.09587e-09 7.73091 5.47488 0.417314 -1.07559e-09 1.75609e-09 -1.09586e-09 2.90554 0.965183 0.102902 -1.07558e-09 1.75609e-09 -1.09586e-09 10.2786 0.731801 0.0259123 -1.07559e-09 1.75609e-09 -1.09585e-09 2.22167 -0.733487 -0.20892 3.23195e-14 1.66974e-13 -3.71448e-14 -46.6812 -0.173125 -1.91033 5.74279 -2.29258 -9.66194 0.000958076 1.84287 -0.25899 -1.06263e-09 5.11063e-10 1.06214e-09 -1.83327e-09 8.8616e-10 1.83733e-09 -1.06264e-09 5.11066e-10 1.06215e-09 -7.73091 5.47488 -0.417314 -1.06263e-09 5.11062e-10 1.06214e-09 -2.90554 0.965183 -0.102902 -1.06264e-09 5.11063e-10 1.06214e-09 -10.2786 0.731801 -0.0259123 -1.06263e-09 5.11062e-10 1.06213e-09 -2.22167 -0.733487 0.20892 -2.03217e-16 0.0 -3.88251e-19 -2.22478 -10.4073 -1.19583 -0.0274172 11.3284 0.184944 -1.06764 -1.94383 -5.17884 2.03217e-16 0.0 3.88251e-19 0.85143 -11.1355 2.07645 -0.0314698 16.0752 -0.255161 0.770694 -6.375 2.38458
9.30133 82.6022 -45.1975 -2.4135 -6.4332 8.4653 -3.83552 -6.80829 -1.63763 5.33103 2.83299 -0.649312 -5.5918 0.59024 -8.45367 1.58547 -0.173968 -15.2125 -0.0 0.0 0.0 -0.0 0.0 0.0 5.57167e-14 2.51066e-13 -5.47065e-14 62.2865 19.4177 3.69417 -9.82358 -4.35663 17.119 -0.0540497 -7.48566 -1.05661 -1.45725e-09 2.5625e-09 -1.6553e-09 -2.51336e-09 4.42858e-09 -2.86621e-09 -1.45725e-09 2.5625e-09 -1.6553e-09 7.73091 5.47488 0.417314 -1.45725e-09 2.5625e-09 -1.65529e-09 2.90554 0.965183 0.102902 -1.45725e-09 2.5625e-09 -1.6553e-09 10.2786 0.731801 0.0259123 -1.45725e-09 2.5625e-09 -1.65529e-09 2.22167 -0.733487 -0.20892 5.57329e-14 2.51061e-13 -5.48859e-14 -68.0809 -0.239351 -2.78025 8.12099 -3.29114 -14.1078 0.00689354 2.67468 -0.37611 -1.42487e-09 7.98841e-10 1.63016e-09 -2.45761e-09 1.38501e-09 2.81965e-09 -1.42488e-09 7.98842e-10 1.63018e-09 -7.73091 5.47488 -0.417314 -1.42487e-09 7.98839e-10 1.63016e-09 -2.90554 0.965183 -0.102902 -1.42488e-09 7.9884e-10 1.63017e-09 -10.2786 0.731801 -0.0259123 -1.42487e-09 7.98839e-10 1.63016e-09 -2.22167 -0.733487 0.20892 -2.03217e-16 0.0 -3.88251e-19 -3.06993 -14.2901 -1.76984 -0.0782939 17.4686 0.313839 -1.69054 -4.63529 -7.63594 2.03217e-16 0.0 3.88251e-19 2.11662 -13.2561 2.97979 -0.0217799 20.6002 -0.348934 1.07188 -9.41988 3.53377
